# AST/ASF file generated using VICON BodyLanguage
# -----------------------------------------------
:version 1.10
:name VICON
:units
  mass 1.0
  length 0.45
  angle deg
:documentation
   .ast/.asf automatically generated from VICON data using
   VICON BodyBuilder and BodyLanguage model FoxedUp or BRILLIANT.MOD
:root
   order TX TY TZ RX RY RZ
   axis XYZ
   position 0 0 0  
   orientation 0 0 0 
:bonedata
  begin
     id 1 
     name lhipjoint
     direction 0.660183 -0.676772 0.325788 
     length 2.75133 
     axis 0 0 0  XYZ
  end
  begin
     id 2 
     name lfemur
     direction 0.34202 -0.939693 0  
     length 7.70317  
     axis 0 0 20  XYZ
    dof rx ry rz
    limits (-160.0 20.0)
           (-70.0 70.0)
           (-60.0 70.0)
  end
  begin
     id 3 
     name ltibia
     direction 0.342105 -0.939662 0   
     length 7.18701   
     axis 0 0 20   XYZ
    dof rx
    limits (-10.0 170.0)
  end
  begin
     id 4 
     name lfoot
     direction 0.14163 -0.389126 0.910232   
     length 2.41719   
     axis -90 7.62852e-016 20   XYZ
    dof rx rz
    limits (-45.0 90.0)
           (-70.0 20.0)
  end
  begin
     id 5 
     name ltoes
     direction 1.53533e-011 -4.21926e-011 1   
     length 1.18611   
     axis -90 7.62852e-016 20   XYZ
    dof rx
    limits (-90.0 20.0)
  end
  begin
     id 6 
     name rhipjoint
     direction -0.6658 -0.67229 0.323631   
     length 2.76968  
     axis 0 0 0  XYZ 
  end
  begin
     id 7 
     name rfemur
     direction -0.34202 -0.939693 0   
     length 7.92547   
     axis 0 0 -20   XYZ
    dof rx ry rz
    limits (-160.0 20.0)
           (-70.0 70.0)
           (-70.0 60.0)
  end
  begin
     id 8 
     name rtibia
     direction -0.342022 -0.939692 0   
     length 7.22641   
     axis 0 0 -20   XYZ
    dof rx
    limits (-10.0 170.0)
 end
 begin
     id 9 
     name rfoot
     direction -0.105675 -0.29034 0.951071   
     length 2.48149  
     axis -90 -7.62852e-016 -20   XYZ
    dof rx rz
    limits (-45.0 90.0)
           (-20.0 70.0)
  end
  begin
     id 10 
     name rtoes
     direction -1.5349e-011 -4.21859e-011 1   
     length 1.23343   
     axis -90 -7.62852e-016 -20   XYZ
    dof rx
    limits (-90.0 20.0)
  end
  begin
     id 11 
     name lowerback
     direction 0.0104173 0.993624 -0.112266   
     length 2.00527   
     axis 0 0 0   XYZ
    dof rx ry rz
    limits (-20.0 45.0)
           (-30.0 30.0)
           (-30.0 30.0)
  end
  begin
     id 12 
     name upperback
     direction 0.00733149 0.999856 -0.0152913   
     length 2.01385   
     axis 0 0 0   XYZ
    dof rx ry rz
    limits (-20.0 45.0)
           (-30.0 30.0)
           (-30.0 30.0)
  end
  begin
     id 13 
     name thorax
     direction 0.0026304 0.999318 0.036841   
     length 2.03734   
     axis 0 0 0   XYZ
    dof rx ry rz
    limits (-20.0 45.0)
           (-30.0 30.0)
           (-30.0 30.0)
  end
  begin
     id 14 
     name lowerneck
     direction 0.0293154 0.998757 0.0403082   
     length 1.65303   
     axis 0 0 0   XYZ
    dof rx ry rz
    limits (-20.0 45.0)
           (-30.0 30.0)
           (-30.0 30.0)
  end
  begin
     id 15 
     name upperneck
     direction -0.0376619 0.998184 -0.0470083   
     length 1.60926   
     axis 0 0 0   XYZ
    dof rx ry rz
    limits (-20.0 45.0)
           (-30.0 30.0)
           (-30.0 30.0)
  end
  begin
     id 16
     name head
     direction -0.0170133 0.999635 -0.0209778  
     length 1.73625  
     axis 0 0 0   XYZ
    dof rx ry rz
    limits (-20.0 45.0)
           (-30.0 30.0)
           (-30.0 30.0)
  end
  begin
     id 17 
     name lclavicle
     direction 0.919857 0.39181 -0.0186333  
     length 3.75313  
     axis 0 0 0   XYZ
    dof ry rz
    limits (-20.0 10.0)
           (0.0 20.0)
  end
  begin
     id 18 
     name lhumerus
     direction 1 -4.48988e-011 1.44029e-027   
     length 5.49313   
     axis 180 -30 -90   XYZ
    dof rx ry rz
    limits (-60.0 90.0)
           (-90.0 90.0)
           (-90.0 90.0)
  end
  begin
     id 19
     name lradius
     direction 1 -4.48924e-011 7.46281e-027   
     length 3.29037   
     axis 180 -30 -90   XYZ
    dof rx
    limits (-10.0 170.0)
  end
  begin
     id 20
     name lwrist
     direction 1 -4.48955e-011 2.19879e-026   
     length 1.64519   
     axis -1.34358e-014 90 90   XYZ
    dof ry
    limits (-180.0 0.0)
 end
  begin
     id 21 
     name lhand
     direction 1 -4.48978e-011 4.39747e-026   
     length 0.729656   
     axis -2.80598e-014 90 90   XYZ
    dof rx rz
    limits (-90.0 90.0)
           (-45.0 45.0)
  end
  begin
     id 22 
     name lfingers
     direction 1 -4.49071e-011 8.79411e-026   
     length 0.588268   
     axis -5.61193e-014 90 90   XYZ
    dof rx
    limits (0.0 90.0)
  end
  begin
     id 23
     name lthumb
     direction 0.707107 -6.34817e-011 0.707107   
     length 0.844638   
     axis -90 45 -9.86923e-015   XYZ
    dof rx rz
    limits (-45.0 45.0)
           (-45.0 45.0)
  end
  begin
     id 24 
     name rclavicle
     direction -0.919898 0.388279 0.0550233   
     length 3.7171  
     axis 0 0 0   XYZ 
    dof ry rz
    limits (-10.0 20.0)
           (-20.0 0.0)
  end
  begin
     id 25 
     name rhumerus
     direction -1 -4.48968e-011 9.98372e-028  
     length 5.23684   
     axis 180 30 90   XYZ
    dof rx ry rz
    limits (-90.0 60.0)
           (-90.0 90.0)
           (-90.0 90.0)
  end
  begin
     id 26 
     name rradius
     direction -1 -4.48956e-011 1.01023e-026   
     length 3.38251   
     axis 180 30 90   XYZ
    dof rx
    limits (-10.0 170.0)
  end
  begin
     id 27 
     name rwrist
     direction -1 -4.4892e-011 2.19886e-026   
     length 1.69126   
     axis -1.34358e-014 -90 -90   XYZ
    dof ry
    limits (-180.0 0.0)
  end
  begin
     id 28
     name rhand
     direction -1 -4.49024e-011 4.39727e-026   
     length 0.691454   
     axis -2.80598e-014 -90 -90   XYZ
    dof rx rz
    limits (-90.0 90.0)
           (-45.0 45.0)
  end
  begin
     id 29
     name rfingers
     direction -1 -4.49097e-011 8.79388e-026   
     length 0.557468   
     axis -5.61193e-014 -90 -90   XYZ
    dof rx
    limits (0.0 90.0)
  end
  begin
     id 30
     name rthumb
     direction -0.707107 -6.34938e-011 0.707107   
     length 0.800416   
     axis -90 -45 9.86923e-015   XYZ
    dof rx rz
    limits (-45.0 45.0)
           (-45.0 45.0)
  end
:hierarchy
  begin
    root lhipjoint rhipjoint lowerback
    lhipjoint lfemur
    lfemur ltibia
    ltibia lfoot
    lfoot ltoes
    rhipjoint rfemur
    rfemur rtibia
    rtibia rfoot
    rfoot rtoes
    lowerback upperback
    upperback thorax
    thorax lowerneck lclavicle rclavicle
    lowerneck upperneck
    upperneck head
    lclavicle lhumerus
    lhumerus lradius
    lradius lwrist
    lwrist lhand lthumb
    lhand lfingers
    rclavicle rhumerus
    rhumerus rradius
    rradius rwrist
    rwrist rhand rthumb
    rhand rfingers
  end

#!OML:ASF H:\BabyWalks\Project 1\Capture day 1\Session 1\baby.ASF
:FULLY-SPECIFIED
:DEGREES
34
root -38.6743 17.4949 -3.35094 -10.2454 77.2024 -9.0926
lowerback 13.3636 -1.34235 1.12576
upperback 5.77119 -1.30925 2.7814
thorax -1.38631 -0.561472 2.44786
lowerneck -5.47881 4.92706 0.974937
upperneck -1.79145 6.5965 -5.77252
head 0.605231 3.27259 -1.81062
rclavicle -2.84262e-014 -1.11319e-014
rhumerus -34.5693 15.5797 -81.8277
rradius 43.6161
rwrist 3.86657
rhand -6.83065 -17.0227
rfingers 7.12502
rthumb 19.0337 -46.1114
lclavicle -2.84262e-014 -1.11319e-014
lhumerus -38.2935 4.48439 83.7229
lradius 48.2369
lwrist 0.901369
lhand 0.413388 12.4193
lfingers 7.12502
lthumb 25.9863 40.6625
rfemur 4.10076 14.7654 25.4734
rtibia 21.0816
rfoot -26.3396 -1.09026
rtoes 13.8791
lfemur -18.0457 -7.22033 -11.7771
ltibia 30.7952
lfoot -16.623 -12.8066
ltoes -7.81116
35
root -38.675 17.4962 -3.35258 -10.2942 77.1928 -9.13282
lowerback 13.3524 -1.337 1.12659
upperback 5.76365 -1.30295 2.77774
thorax -1.38851 -0.558504 2.44249
lowerneck -5.45678 4.92598 0.984814
upperneck -1.78329 6.59446 -5.77584
head 0.604514 3.27154 -1.81388
rclavicle -9.93923e-016 -2.38542e-015
rhumerus -34.5838 15.5428 -81.8008
rradius 43.5737
rwrist 3.88857
rhand -6.81408 -17.0332
rfingers 7.12502
rthumb 19.0496 -46.1204
lclavicle -9.93923e-016 -2.38542e-015
lhumerus -38.2923 4.48697 83.6855
lradius 48.2208
lwrist 0.888562
lhand 0.404764 12.4164
lfingers 7.12502
lthumb 25.978 40.6609
rfemur 4.09102 14.7849 25.4807
rtibia 21.0893
rfoot -26.2908 -1.09842
rtoes 13.7234
lfemur -18.0237 -7.22126 -11.7717
ltibia 30.7703
lfoot -16.6078 -12.8031
ltoes -7.82028
36
root -38.6759 17.4972 -3.35431 -10.3476 77.1867 -9.17506
lowerback 13.3501 -1.33341 1.12683
upperback 5.75424 -1.29867 2.77403
thorax -1.39741 -0.556523 2.43792
lowerneck -5.42841 4.92764 0.983545
upperneck -1.78045 6.59629 -5.7655
head 0.600189 3.27276 -1.81098
rclavicle -3.97569e-016 1.98785e-014
rhumerus -34.6008 15.5092 -81.7778
rradius 43.5369
rwrist 3.90789
rhand -6.79933 -17.0323
rfingers 7.12502
rthumb 19.0638 -46.118
lclavicle -3.97569e-016 1.98785e-014
lhumerus -38.2949 4.4881 83.6474
lradius 48.2041
lwrist 0.874727
lhand 0.402419 12.4057
lfingers 7.12502
lthumb 25.9758 40.6505
rfemur 4.09219 14.7962 25.4884
rtibia 21.0849
rfoot -26.2382 -1.10749
rtoes 13.563
lfemur -18.0085 -7.2248 -11.7669
ltibia 30.7623
lfoot -16.6019 -12.7982
ltoes -7.82416
37
root -38.677 17.4969 -3.35615 -10.4036 77.1831 -9.21801
lowerback 13.3544 -1.33094 1.12626
upperback 5.74356 -1.29574 2.76999
thorax -1.4111 -0.555196 2.43385
lowerneck -5.40253 4.92824 0.98541
upperneck -1.77427 6.59668 -5.75643
head 0.59746 3.27313 -1.80895
rclavicle -1.15295e-014 -1.55052e-014
rhumerus -34.6171 15.4764 -81.7583
rradius 43.5004
rwrist 3.92665
rhand -6.78655 -17.0177
rfingers 7.12502
rthumb 19.0761 -46.1022
lclavicle -1.15295e-014 -1.55052e-014
lhumerus -38.3007 4.48638 83.6091
lradius 48.1876
lwrist 0.859631
lhand 0.405198 12.3943
lfingers 7.12502
lthumb 25.9784 40.6387
rfemur 4.10987 14.7917 25.4958
rtibia 21.0711
rfoot -26.192 -1.11899
rtoes 13.3832
lfemur -18.0012 -7.23059 -11.7625
ltibia 30.7689
lfoot -16.6002 -12.794
ltoes -7.82438
38
root -38.6783 17.4954 -3.35814 -10.4641 77.1806 -9.26398
lowerback 13.3619 -1.32914 1.12605
upperback 5.73328 -1.2935 2.76579
thorax -1.42607 -0.554181 2.42957
lowerneck -5.37966 4.92832 0.992854
upperneck -1.76739 6.59617 -5.75192
head 0.595831 3.27293 -1.80929
rclavicle -1.70955e-014 -1.82882e-014
rhumerus -34.6346 15.4456 -81.7424
rradius 43.4716
rwrist 3.943
rhand -6.77434 -16.9962
rfingers 7.12502
rthumb 19.0878 -46.0795
lclavicle -1.70955e-014 -1.82882e-014
lhumerus -38.3056 4.4792 83.5721
lradius 48.17
lwrist 0.846412
lhand 0.411343 12.3839
lfingers 7.12502
lthumb 25.9843 40.6275
rfemur 4.14628 14.7705 25.5036
rtibia 21.0434
rfoot -26.1516 -1.1325
rtoes 13.1944
lfemur -18.0037 -7.23796 -11.7575
ltibia 30.7951
lfoot -16.6071 -12.7883
ltoes -7.82328
39
root -38.6797 17.494 -3.3602 -10.5323 77.1775 -9.31839
lowerback 13.3738 -1.32798 1.12769
upperback 5.72029 -1.2917 2.76224
thorax -1.44625 -0.553375 2.42515
lowerneck -5.3572 4.92788 1.00284
upperneck -1.75865 6.59493 -5.75109
head 0.59508 3.27229 -1.81122
rclavicle -1.90833e-014 -1.11319e-014
rhumerus -34.6552 15.4191 -81.7314
rradius 43.4473
rwrist 3.95381
rhand -6.77106 -16.9724
rfingers 7.12502
rthumb 19.091 -46.0555
lclavicle -1.90833e-014 -1.11319e-014
lhumerus -38.3156 4.46773 83.5369
lradius 48.1554
lwrist 0.835474
lhand 0.421767 12.3774
lfingers 7.12502
lthumb 25.9943 40.6195
rfemur 4.18574 14.7496 25.513
rtibia 21.0044
rfoot -26.1009 -1.14503
rtoes 12.9911
lfemur -18.0133 -7.24743 -11.7499
ltibia 30.8359
lfoot -16.6211 -12.7792
ltoes -7.81878
40
root -38.681 17.4919 -3.36243 -10.6077 77.1739 -9.3801
lowerback 13.3873 -1.32707 1.13133
upperback 5.70673 -1.28992 2.75932
thorax -1.46794 -0.552545 2.42028
lowerneck -5.3374 4.92538 1.02199
upperneck -1.74875 6.59064 -5.76082
head 0.595832 3.26995 -1.81813
rclavicle -2.52457e-014 1.78906e-014
rhumerus -34.6764 15.3948 -81.7233
rradius 43.4298
rwrist 3.96252
rhand -6.77215 -16.9495
rfingers 7.12502
rthumb 19.0899 -46.0326
lclavicle -2.52457e-014 1.78906e-014
lhumerus -38.3272 4.45064 83.505
lradius 48.1426
lwrist 0.827145
lhand 0.42986 12.3804
lfingers 7.12502
lthumb 26.002 40.6214
rfemur 4.23247 14.7196 25.5232
rtibia 20.9605
rfoot -26.0541 -1.15674
rtoes 12.7896
lfemur -18.0269 -7.25822 -11.7404
ltibia 30.8828
lfoot -16.6377 -12.7692
ltoes -7.80976
41
root -38.6823 17.4901 -3.36472 -10.6864 77.1685 -9.44767
lowerback 13.3974 -1.32595 1.1367
upperback 5.69286 -1.28775 2.75701
thorax -1.48817 -0.551529 2.41497
lowerneck -5.32237 4.92106 1.0506
upperneck -1.73343 6.58377 -5.78145
head 0.599815 3.26602 -1.83003
rclavicle -1.86858e-014 1.98785e-015
rhumerus -34.7016 15.3773 -81.7203
rradius 43.4232
rwrist 3.96417
rhand -6.78233 -16.9328
rfingers 7.12502
rthumb 19.0802 -46.0169
lclavicle -1.86858e-014 1.98785e-015
lhumerus -38.3393 4.42843 83.4762
lradius 48.1315
lwrist 0.820222
lhand 0.437121 12.3881
lfingers 7.12502
lthumb 26.009 40.628
rfemur 4.27356 14.6934 25.5345
rtibia 20.9209
rfoot -26.0086 -1.16895
rtoes 12.5938
lfemur -18.0397 -7.26788 -11.7288
ltibia 30.9239
lfoot -16.6517 -12.7592
ltoes -7.79906
42
root -38.6834 17.4891 -3.36701 -10.7673 77.1621 -9.52002
lowerback 13.4033 -1.32535 1.143
upperback 5.67927 -1.28628 2.75578
thorax -1.50583 -0.550875 2.41023
lowerneck -5.30911 4.91613 1.08425
upperneck -1.71678 6.576 -5.81045
head 0.605023 3.26152 -1.84546
rclavicle -2.26615e-014 2.5842e-014
rhumerus -34.7264 15.3668 -81.721
rradius 43.4237
rwrist 3.95992
rhand -6.79779 -16.9214
rfingers 7.12502
rthumb 19.0653 -46.007
lclavicle -2.26615e-014 2.5842e-014
lhumerus -38.3522 4.40408 83.4509
lradius 48.1233
lwrist 0.815501
lhand 0.436938 12.4073
lfingers 7.12502
lthumb 26.0088 40.6473
rfemur 4.30196 14.6766 25.5467
rtibia 20.8886
rfoot -25.9584 -1.18111
rtoes 12.3994
lfemur -18.0485 -7.27649 -11.716
ltibia 30.9541
lfoot -16.6613 -12.7499
ltoes -7.78777
